<?xml version="1.0" encoding="utf-8"?>
<!-- Generator: Adobe Illustrator 19.0.0, SVG Export Plug-In . SVG Version: 6.00 Build 0)  -->
<svg version="1.1" id="Ebene_1" xmlns="http://www.w3.org/2000/svg" xmlns:xlink="http://www.w3.org/1999/xlink" x="0px" y="0px"
	 viewBox="0 0 552.76 85.04" style="enable-background:new 0 0 552.76 85.04;" xml:space="preserve">
<style type="text/css">
	.st0{fill:none;stroke:#000000;stroke-width:2.1775;stroke-miterlimit:10;}
	.st1{fill:none;stroke:#000000;stroke-width:2.4195;stroke-miterlimit:10;}
	.st2{fill:none;stroke:#000000;stroke-width:1.961;stroke-linecap:round;stroke-linejoin:round;stroke-miterlimit:10;}
	.st3{fill:none;stroke:#000000;stroke-width:2.1586;stroke-linecap:round;stroke-linejoin:round;stroke-miterlimit:10;}
</style>
<g id="XMLID_138_">
	<path id="XMLID_96_" d="M109.35,48.85c0,0.95,0.07,1.82,0.21,2.61c0.14,0.79,0.34,1.54,0.6,2.25c0.8,2.16,2.08,3.78,3.84,4.87
		c1.76,1.09,3.75,1.64,5.98,1.64c1.75,0,3.45-0.24,5.1-0.73c1.65-0.49,3.38-1.25,5.2-2.28l2.43,4.11c-2.2,1.51-4.42,2.63-6.64,3.37
		c-2.22,0.73-4.53,1.1-6.93,1.1c-2.27,0-4.37-0.38-6.3-1.13c-1.93-0.76-3.6-1.88-4.99-3.37c-1.39-1.49-2.48-3.35-3.27-5.57
		c-0.79-2.22-1.18-4.81-1.18-7.77c0-2.4,0.33-4.66,1-6.79c0.67-2.13,1.67-3.98,3-5.57c1.33-1.59,2.97-2.84,4.94-3.77
		s4.25-1.39,6.87-1.39c2.53,0,4.64,0.38,6.33,1.15c1.69,0.77,3.08,1.78,4.15,3.04s1.88,2.7,2.43,4.32c0.55,1.62,0.93,3.27,1.15,4.96
		c0.11,0.82,0.18,1.65,0.21,2.49c0.03,0.84,0.05,1.66,0.05,2.46H109.35z M118.77,35.47c-1.4,0-2.63,0.2-3.68,0.6
		c-1.05,0.4-1.94,0.97-2.67,1.72c-0.73,0.74-1.32,1.66-1.77,2.74s-0.77,2.29-0.99,3.63h17.39c-0.09-1.25-0.29-2.41-0.6-3.47
		c-0.31-1.06-0.79-1.98-1.44-2.75c-0.65-0.78-1.48-1.38-2.49-1.81C121.52,35.69,120.26,35.47,118.77,35.47z"/>
	<path id="XMLID_99_" d="M157.46,37.98c-0.42-0.64-0.97-1.15-1.64-1.55c-0.67-0.4-1.41-0.69-2.23-0.87
		c-0.82-0.18-1.62-0.28-2.4-0.28c-0.86,0-1.66,0.1-2.38,0.29c-0.72,0.19-1.34,0.48-1.86,0.84s-0.92,0.81-1.21,1.34
		c-0.29,0.53-0.44,1.12-0.44,1.77c0,1.12,0.34,2.01,1.02,2.67s1.82,1.27,3.42,1.83l6.45,2.27c2.76,0.93,4.78,2.19,6.06,3.79
		c1.27,1.6,1.91,3.51,1.91,5.73c0,1.49-0.3,2.86-0.89,4.1c-0.59,1.24-1.44,2.3-2.53,3.17s-2.4,1.55-3.94,2.04
		c-1.53,0.49-3.24,0.73-5.12,0.73c-2.61,0-4.74-0.42-6.38-1.26c-1.64-0.84-2.9-1.95-3.79-3.34h-3.37v-5.57h6.7
		c0,0.93,0.2,1.72,0.6,2.38s0.93,1.19,1.59,1.6c0.66,0.41,1.4,0.71,2.23,0.91s1.68,0.29,2.54,0.29c0.84,0,1.65-0.1,2.43-0.31
		c0.78-0.21,1.46-0.51,2.06-0.91c0.59-0.4,1.06-0.88,1.41-1.44c0.35-0.56,0.52-1.2,0.52-1.91c0-1.08-0.35-2-1.05-2.75
		c-0.7-0.76-1.89-1.44-3.58-2.04l-6.41-2.4c-2.61-0.93-4.55-2.11-5.81-3.55c-1.26-1.44-1.89-3.23-1.89-5.39
		c0-1.43,0.26-2.74,0.79-3.95c0.53-1.21,1.3-2.25,2.3-3.13s2.23-1.56,3.68-2.06c1.45-0.5,3.1-0.75,4.96-0.75c2.4,0,4.4,0.33,6.02,1
		c1.62,0.67,3.08,1.81,4.37,3.43h3.14v5.57h-6.64C158.09,39.39,157.88,38.62,157.46,37.98z"/>
	<path id="XMLID_101_" d="M169.22,31.29h10.69v2.79c1.43-1.1,2.98-1.98,4.66-2.62s3.42-0.97,5.21-0.97c2.2,0,4.22,0.41,6.06,1.23
		c1.83,0.82,3.42,1.98,4.74,3.47c1.33,1.49,2.36,3.28,3.09,5.36c0.73,2.08,1.1,4.39,1.1,6.91c0,2.7-0.41,5.16-1.23,7.38
		c-0.82,2.22-1.96,4.13-3.42,5.72c-1.46,1.59-3.19,2.82-5.2,3.71c-2.01,0.89-4.21,1.33-6.61,1.33c-1.71,0-3.22-0.18-4.55-0.53
		c-1.33-0.36-2.6-0.81-3.81-1.38v10.85h5.25v5.57h-15.94v-5.57h4.6V36.86h-4.66V31.29z M188.2,35.79c-1.55,0-3.05,0.31-4.49,0.94
		c-1.44,0.63-2.68,1.49-3.74,2.59v18.17c0.71,0.73,1.73,1.39,3.06,1.98c1.33,0.58,2.98,0.87,4.97,0.87c1.38,0,2.71-0.27,3.98-0.81
		c1.27-0.54,2.4-1.34,3.37-2.41s1.75-2.39,2.33-3.97s0.87-3.4,0.87-5.47c0-1.9-0.28-3.58-0.83-5.05c-0.55-1.47-1.3-2.71-2.23-3.72
		c-0.94-1.01-2.04-1.79-3.29-2.32C190.96,36.06,189.63,35.79,188.2,35.79z"/>
	<path id="XMLID_104_" d="M208.47,14.45h10.62v20.53h0.19c0.6-0.6,1.3-1.17,2.09-1.7c0.79-0.53,1.61-0.99,2.48-1.38
		s1.76-0.69,2.69-0.91c0.93-0.22,1.9-0.32,2.92-0.32c1.79,0,3.41,0.25,4.86,0.75c1.45,0.5,2.68,1.25,3.69,2.27
		c1.01,1.02,1.8,2.32,2.35,3.9c0.55,1.59,0.83,3.46,0.83,5.62v16.06h5.05v5.57H230.3v-5.57h4.6V43.96c0-2.57-0.65-4.52-1.96-5.85
		c-1.31-1.33-3.18-1.99-5.62-1.99c-1.38,0-2.79,0.33-4.21,0.99c-1.43,0.66-2.76,1.48-4.02,2.48v19.69h4.86v5.57h-15.93v-5.57h5.05
		V20.02h-4.6V14.45z"/>
	<path id="XMLID_106_" d="M248.43,48.07c0.02-2.66,0.45-5.07,1.28-7.25c0.83-2.18,1.99-4.05,3.48-5.62
		c1.49-1.56,3.26-2.77,5.31-3.61c2.05-0.84,4.31-1.26,6.77-1.26c2.48,0,4.76,0.42,6.82,1.26c2.06,0.84,3.83,2.04,5.3,3.58
		c1.47,1.54,2.61,3.41,3.43,5.59c0.82,2.18,1.23,4.6,1.23,7.25c0,2.61-0.41,5.02-1.23,7.21c-0.82,2.19-1.96,4.08-3.43,5.65
		c-1.47,1.58-3.23,2.8-5.3,3.68c-2.06,0.87-4.33,1.31-6.82,1.31c-2.53,0-4.81-0.43-6.87-1.3c-2.05-0.86-3.81-2.08-5.28-3.64
		s-2.61-3.44-3.43-5.62C248.87,53.11,248.45,50.7,248.43,48.07z M254.81,48.07c0,1.92,0.28,3.66,0.83,5.21
		c0.55,1.55,1.31,2.88,2.27,3.97c0.96,1.09,2.07,1.93,3.34,2.53c1.26,0.59,2.61,0.89,4.03,0.89c1.49,0,2.88-0.29,4.16-0.87
		s2.4-1.42,3.35-2.51c0.95-1.09,1.69-2.41,2.23-3.97s0.81-3.3,0.81-5.25c0-2.03-0.27-3.83-0.81-5.41c-0.54-1.58-1.28-2.89-2.22-3.95
		c-0.94-1.06-2.06-1.86-3.35-2.4c-1.3-0.54-2.69-0.81-4.18-0.81c-1.43,0-2.77,0.27-4.03,0.81s-2.38,1.34-3.34,2.4
		c-0.96,1.06-1.72,2.38-2.27,3.95C255.09,44.24,254.81,46.04,254.81,48.07z"/>
	<path id="XMLID_109_" d="M285.58,31.29h10.69v3.92h0.06c0.73-0.63,1.51-1.21,2.32-1.77c0.81-0.55,1.66-1.03,2.54-1.44
		c0.89-0.41,1.81-0.73,2.77-0.97c0.96-0.24,1.96-0.36,3-0.36c2.42,0,4.5,0.45,6.25,1.34c1.75,0.9,3.1,2.29,4.05,4.19
		c0.82-0.73,1.68-1.44,2.59-2.12s1.85-1.27,2.83-1.77c0.98-0.5,2.01-0.9,3.09-1.2c1.08-0.3,2.2-0.45,3.37-0.45
		c1.81,0,3.44,0.25,4.89,0.75c1.45,0.5,2.68,1.25,3.69,2.27c1.01,1.02,1.79,2.32,2.32,3.9c0.53,1.59,0.79,3.46,0.79,5.62v16.06h4.66
		v5.57h-15.68v-5.57h4.73V43.96c0-2.57-0.65-4.52-1.94-5.85s-3.16-1.99-5.6-1.99c-1.45,0-2.93,0.35-4.44,1.04
		c-1.51,0.69-2.81,1.57-3.89,2.62v19.5h4.63v5.57h-15.64v-5.57h4.73V43.96c0-2.57-0.65-4.52-1.96-5.85
		c-1.31-1.33-3.18-1.99-5.62-1.99c-1.4,0-2.82,0.33-4.24,1c-1.43,0.67-2.77,1.5-4.05,2.49v19.66h4.73v5.57h-15.68v-5.57h4.66V36.86
		h-4.66V31.29z"/>
	<path id="XMLID_111_" d="M354.69,48.85c0,0.95,0.07,1.82,0.21,2.61c0.14,0.79,0.34,1.54,0.6,2.25c0.8,2.16,2.08,3.78,3.84,4.87
		c1.76,1.09,3.75,1.64,5.98,1.64c1.75,0,3.45-0.24,5.1-0.73c1.65-0.49,3.38-1.25,5.2-2.28l2.43,4.11c-2.2,1.51-4.42,2.63-6.64,3.37
		c-2.22,0.73-4.53,1.1-6.93,1.1c-2.27,0-4.37-0.38-6.3-1.13c-1.93-0.76-3.6-1.88-4.99-3.37c-1.39-1.49-2.48-3.35-3.27-5.57
		c-0.79-2.22-1.18-4.81-1.18-7.77c0-2.4,0.33-4.66,1-6.79c0.67-2.13,1.67-3.98,3-5.57c1.33-1.59,2.97-2.84,4.94-3.77
		s4.25-1.39,6.87-1.39c2.53,0,4.64,0.38,6.33,1.15c1.69,0.77,3.08,1.78,4.15,3.04s1.88,2.7,2.43,4.32c0.55,1.62,0.93,3.27,1.15,4.96
		c0.11,0.82,0.18,1.65,0.21,2.49c0.03,0.84,0.05,1.66,0.05,2.46H354.69z M364.11,35.47c-1.4,0-2.63,0.2-3.68,0.6
		c-1.05,0.4-1.94,0.97-2.67,1.72c-0.73,0.74-1.32,1.66-1.77,2.74s-0.77,2.29-0.99,3.63h17.39c-0.09-1.25-0.29-2.41-0.6-3.47
		c-0.31-1.06-0.79-1.98-1.44-2.75c-0.65-0.78-1.48-1.38-2.49-1.81C366.85,35.69,365.6,35.47,364.11,35.47z"/>
	<path id="XMLID_114_" d="M381.16,31.29h12.73v5.57h-3.98l7.87,21.41L406,36.86h-3.95v-5.57h12.73v5.57h-3.47l-14.93,37.67h4.6v5.57
		h-13.54v-5.57h4.08l3.56-9.23l-11.21-28.44h-2.72V31.29z"/>
	<path id="XMLID_116_" d="M437.56,61.74c-1.27,1.19-2.68,2.16-4.23,2.92c-1.54,0.76-3.3,1.13-5.26,1.13c-1.64,0-3.15-0.26-4.52-0.78
		c-1.37-0.52-2.55-1.23-3.55-2.12c-0.99-0.9-1.77-1.94-2.32-3.13c-0.55-1.19-0.83-2.45-0.83-3.79c0-1.42,0.21-2.69,0.63-3.79
		c0.42-1.1,0.98-2.06,1.68-2.87c0.7-0.81,1.52-1.49,2.46-2.04c0.94-0.55,1.92-0.99,2.95-1.33c1.03-0.33,2.07-0.57,3.14-0.71
		c1.07-0.14,2.09-0.21,3.06-0.21c1.55,0,2.86,0.05,3.92,0.15c1.06,0.1,2.02,0.23,2.88,0.4l0.03-2.75c0-1.19-0.17-2.22-0.52-3.09
		c-0.35-0.87-0.83-1.6-1.46-2.17c-0.63-0.57-1.38-1-2.25-1.28c-0.87-0.28-1.85-0.42-2.93-0.42c-1.02,0-1.99,0.07-2.92,0.21
		c-0.93,0.14-1.8,0.32-2.61,0.55c-0.81,0.23-1.55,0.49-2.23,0.78s-1.26,0.6-1.73,0.92L419,34.14c0.8-0.52,1.67-1,2.62-1.44
		c0.95-0.44,1.95-0.82,3-1.13c1.05-0.31,2.12-0.56,3.21-0.74c1.09-0.18,2.16-0.28,3.22-0.28c1.94,0,3.69,0.23,5.25,0.7
		s2.87,1.18,3.95,2.15s1.91,2.21,2.49,3.71c0.58,1.5,0.87,3.3,0.87,5.39l-0.03,16.78h3.72v5.57h-9.75V61.74z M429.4,60.73
		c0.8,0,1.6-0.1,2.4-0.29s1.55-0.46,2.27-0.79c0.71-0.33,1.37-0.72,1.98-1.17c0.6-0.44,1.11-0.9,1.52-1.38l0.03-7.58h-7
		c-1.17,0-2.23,0.13-3.19,0.39c-0.96,0.26-1.79,0.64-2.49,1.13c-0.7,0.5-1.25,1.11-1.64,1.85c-0.39,0.73-0.58,1.58-0.58,2.53
		c0,0.89,0.16,1.66,0.49,2.32c0.32,0.66,0.78,1.21,1.38,1.65c0.59,0.44,1.3,0.78,2.12,1C427.49,60.62,428.4,60.73,429.4,60.73z"/>
	<path id="XMLID_119_" d="M451.12,31.29h10.69v3.92h0.06c0.73-0.63,1.51-1.21,2.32-1.77c0.81-0.55,1.66-1.03,2.54-1.44
		c0.89-0.41,1.81-0.73,2.77-0.97c0.96-0.24,1.96-0.36,3-0.36c2.42,0,4.5,0.45,6.25,1.34c1.75,0.9,3.1,2.29,4.05,4.19
		c0.82-0.73,1.68-1.44,2.59-2.12s1.85-1.27,2.83-1.77c0.98-0.5,2.01-0.9,3.09-1.2c1.08-0.3,2.2-0.45,3.37-0.45
		c1.81,0,3.44,0.25,4.89,0.75c1.45,0.5,2.68,1.25,3.69,2.27c1.01,1.02,1.79,2.32,2.32,3.9c0.53,1.59,0.79,3.46,0.79,5.62v16.06h4.66
		v5.57h-15.68v-5.57h4.73V43.96c0-2.57-0.65-4.52-1.94-5.85s-3.16-1.99-5.6-1.99c-1.45,0-2.93,0.35-4.44,1.04
		c-1.51,0.69-2.81,1.57-3.89,2.62v19.5h4.63v5.57h-15.64v-5.57h4.73V43.96c0-2.57-0.65-4.52-1.96-5.85
		c-1.31-1.33-3.18-1.99-5.62-1.99c-1.4,0-2.82,0.33-4.24,1c-1.43,0.67-2.77,1.5-4.05,2.49v19.66h4.73v5.57h-15.68v-5.57h4.66V36.86
		h-4.66V31.29z"/>
	<path id="XMLID_121_" d="M515.6,14.45h10.88v44.83h5.05v5.57H515.6v-5.57h4.86V20.02h-4.86V14.45z"/>
</g>
<g id="XMLID_1_">
	<g id="XMLID_68_">
		<g id="XMLID_79_">
			<path id="XMLID_80_" class="st0" d="M80.63,26.18l0-4.18c0-1.47,1.19-2.66,2.66-2.66s2.66,1.19,2.66,2.66l0,4.18"/>
		</g>
		<g id="XMLID_77_">
			<path id="XMLID_78_" class="st0" d="M71.68,26.18l0-4.18c0-1.47,1.19-2.66,2.66-2.66S77,20.52,77,21.99l0,4.18"/>
		</g>
		<g id="XMLID_75_">
			<path id="XMLID_76_" class="st0" d="M62.72,26.18l0-4.18c0-1.47,1.19-2.66,2.66-2.66s2.66,1.19,2.66,2.66v4.18"/>
		</g>
		<g id="XMLID_73_">
			<path id="XMLID_74_" class="st0" d="M53.76,26.18l0-4.18c0-1.47,1.19-2.66,2.66-2.66s2.66,1.19,2.66,2.66v4.18"/>
		</g>
		<g id="XMLID_71_">
			<path id="XMLID_72_" class="st0" d="M44.8,26.18l0-4.18c0-1.47,1.19-2.66,2.66-2.66s2.66,1.19,2.66,2.66l0,4.18"/>
		</g>
		<g id="XMLID_69_">
			<path id="XMLID_70_" class="st0" d="M35.85,26.18l0-4.18c0-1.47,1.19-2.66,2.66-2.66s2.66,1.19,2.66,2.66l0,4.18"/>
		</g>
	</g>
	<g id="XMLID_55_">
		<g id="XMLID_66_">
			<path id="XMLID_67_" class="st0" d="M85.95,66.07v4.68c0,1.47-1.19,2.66-2.66,2.66c-1.47,0-2.66-1.19-2.66-2.66v-4.68"/>
		</g>
		<g id="XMLID_64_">
			<path id="XMLID_65_" class="st0" d="M77,66.07l0,4.68c0,1.47-1.19,2.66-2.66,2.66c-1.47,0-2.66-1.19-2.66-2.66l0-4.68"/>
		</g>
		<g id="XMLID_62_">
			<path id="XMLID_63_" class="st0" d="M68.04,66.07l0,4.68c0,1.47-1.19,2.66-2.66,2.66c-1.47,0-2.66-1.19-2.66-2.66v-4.68"/>
		</g>
		<g id="XMLID_60_">
			<path id="XMLID_61_" class="st0" d="M59.08,66.07l0,4.68c0,1.47-1.19,2.66-2.66,2.66c-1.47,0-2.66-1.19-2.66-2.66l0-4.68"/>
		</g>
		<g id="XMLID_58_">
			<path id="XMLID_59_" class="st0" d="M50.12,66.07v4.68c0,1.47-1.19,2.66-2.66,2.66c-1.47,0-2.66-1.19-2.66-2.66l0-4.68"/>
		</g>
		<g id="XMLID_56_">
			<path id="XMLID_57_" class="st0" d="M41.17,66.33l0,4.43c0,1.47-1.19,2.66-2.66,2.66c-1.47,0-2.66-1.19-2.66-2.66l0-4.43"/>
		</g>
	</g>
	<g id="XMLID_24_">
		<path id="XMLID_26_" class="st1" d="M87.29,26.18H34.51c-0.53,0-0.97,0.43-0.97,0.97l0,37.96c0,0.53,0.43,0.97,0.97,0.97l52.77,0
			c0.53,0,0.97-0.43,0.97-0.97l0-37.96C88.25,26.61,87.82,26.18,87.29,26.18z"/>
	</g>
	<g id="XMLID_18_">
		<polygon id="XMLID_22_" points="69.6,45.42 69.6,40.35 67.8,40.35 67.8,43.63 60.99,36.82 49.5,48.32 52.37,48.32 52.37,56.07 
			69.62,56.07 69.62,48.32 72.49,48.32 		"/>
		<polygon id="XMLID_21_" class="st2" points="69.6,45.42 69.6,40.35 67.8,40.35 67.8,43.63 60.99,36.82 49.5,48.32 52.37,48.32 
			52.37,56.07 69.62,56.07 69.62,48.32 72.49,48.32 		"/>
	</g>
	<g id="XMLID_13_">
		<polyline id="XMLID_14_" class="st3" points="33.34,63.77 17.52,63.77 17.52,59.88 29.38,59.88 29.38,55.99 17.52,55.99 
			17.52,52.11 29.38,52.11 29.38,48.22 17.52,48.22 17.52,44.33 29.38,44.33 29.38,40.45 17.52,40.45 17.52,28.47 		"/>
	</g>
</g>
<g id="XMLID_95_">
</g>
<g id="XMLID_123_">
</g>
<g id="XMLID_124_">
</g>
<g id="XMLID_125_">
</g>
<g id="XMLID_126_">
</g>
<g id="XMLID_127_">
</g>
</svg>
