<?xml version="1.0" encoding="utf-8"?>
<!-- Generator: Adobe Illustrator 19.0.0, SVG Export Plug-In . SVG Version: 6.00 Build 0)  -->
<svg version="1.1" id="Ebene_1" xmlns="http://www.w3.org/2000/svg" xmlns:xlink="http://www.w3.org/1999/xlink" x="0px" y="0px"
	 viewBox="0 0 107.72 85.04" style="enable-background:new 0 0 107.72 85.04;" xml:space="preserve">
<style type="text/css">
	.st0{fill:none;stroke:#000000;stroke-width:2.1775;stroke-miterlimit:10;}
	.st1{fill:none;stroke:#000000;stroke-width:2.4195;stroke-miterlimit:10;}
	.st2{fill:none;stroke:#000000;stroke-width:1.961;stroke-linecap:round;stroke-linejoin:round;stroke-miterlimit:10;}
	.st3{fill:none;stroke:#000000;stroke-width:2.1586;stroke-linecap:round;stroke-linejoin:round;stroke-miterlimit:10;}
</style>
<g id="XMLID_91_">
	<g id="XMLID_113_">
		<g id="XMLID_124_">
			<path id="XMLID_125_" class="st0" d="M80.63,26.18l0-4.18c0-1.47,1.19-2.66,2.66-2.66s2.66,1.19,2.66,2.66l0,4.18"/>
		</g>
		<g id="XMLID_122_">
			<path id="XMLID_123_" class="st0" d="M71.68,26.18l0-4.18c0-1.47,1.19-2.66,2.66-2.66S77,20.52,77,21.99l0,4.18"/>
		</g>
		<g id="XMLID_120_">
			<path id="XMLID_121_" class="st0" d="M62.72,26.18l0-4.18c0-1.47,1.19-2.66,2.66-2.66s2.66,1.19,2.66,2.66v4.18"/>
		</g>
		<g id="XMLID_118_">
			<path id="XMLID_119_" class="st0" d="M53.76,26.18l0-4.18c0-1.47,1.19-2.66,2.66-2.66s2.66,1.19,2.66,2.66v4.18"/>
		</g>
		<g id="XMLID_116_">
			<path id="XMLID_117_" class="st0" d="M44.8,26.18l0-4.18c0-1.47,1.19-2.66,2.66-2.66s2.66,1.19,2.66,2.66l0,4.18"/>
		</g>
		<g id="XMLID_114_">
			<path id="XMLID_115_" class="st0" d="M35.85,26.18l0-4.18c0-1.47,1.19-2.66,2.66-2.66s2.66,1.19,2.66,2.66l0,4.18"/>
		</g>
	</g>
	<g id="XMLID_100_">
		<g id="XMLID_111_">
			<path id="XMLID_112_" class="st0" d="M85.95,66.07v4.68c0,1.47-1.19,2.66-2.66,2.66c-1.47,0-2.66-1.19-2.66-2.66v-4.68"/>
		</g>
		<g id="XMLID_109_">
			<path id="XMLID_110_" class="st0" d="M77,66.07l0,4.68c0,1.47-1.19,2.66-2.66,2.66c-1.47,0-2.66-1.19-2.66-2.66l0-4.68"/>
		</g>
		<g id="XMLID_107_">
			<path id="XMLID_108_" class="st0" d="M68.04,66.07l0,4.68c0,1.47-1.19,2.66-2.66,2.66c-1.47,0-2.66-1.19-2.66-2.66v-4.68"/>
		</g>
		<g id="XMLID_105_">
			<path id="XMLID_106_" class="st0" d="M59.08,66.07l0,4.68c0,1.47-1.19,2.66-2.66,2.66c-1.47,0-2.66-1.19-2.66-2.66l0-4.68"/>
		</g>
		<g id="XMLID_103_">
			<path id="XMLID_104_" class="st0" d="M50.12,66.07v4.68c0,1.47-1.19,2.66-2.66,2.66c-1.47,0-2.66-1.19-2.66-2.66l0-4.68"/>
		</g>
		<g id="XMLID_101_">
			<path id="XMLID_102_" class="st0" d="M41.17,66.33l0,4.43c0,1.47-1.19,2.66-2.66,2.66c-1.47,0-2.66-1.19-2.66-2.66l0-4.43"/>
		</g>
	</g>
	<g id="XMLID_98_">
		<path id="XMLID_99_" class="st1" d="M87.29,26.18H34.51c-0.53,0-0.97,0.43-0.97,0.97l0,37.96c0,0.53,0.43,0.97,0.97,0.97l52.77,0
			c0.53,0,0.97-0.43,0.97-0.97l0-37.96C88.25,26.61,87.82,26.18,87.29,26.18z"/>
	</g>
	<g id="XMLID_95_">
		<polygon id="XMLID_97_" points="69.6,45.42 69.6,40.35 67.8,40.35 67.8,43.63 60.99,36.82 49.5,48.32 52.37,48.32 52.37,56.07 
			69.62,56.07 69.62,48.32 72.49,48.32 		"/>
		<polygon id="XMLID_96_" class="st2" points="69.6,45.42 69.6,40.35 67.8,40.35 67.8,43.63 60.99,36.82 49.5,48.32 52.37,48.32 
			52.37,56.07 69.62,56.07 69.62,48.32 72.49,48.32 		"/>
	</g>
	<g id="XMLID_93_">
		<polyline id="XMLID_94_" class="st3" points="33.34,63.77 17.52,63.77 17.52,59.88 29.38,59.88 29.38,55.99 17.52,55.99 
			17.52,52.11 29.38,52.11 29.38,48.22 17.52,48.22 17.52,44.33 29.38,44.33 29.38,40.45 17.52,40.45 17.52,28.47 		"/>
	</g>
</g>
<g id="XMLID_225_">
</g>
<g id="XMLID_226_">
</g>
<g id="XMLID_227_">
</g>
<g id="XMLID_228_">
</g>
<g id="XMLID_229_">
</g>
<g id="XMLID_230_">
</g>
</svg>
