<?xml version="1.0" encoding="utf-8"?>
<!-- Generator: Adobe Illustrator 19.0.0, SVG Export Plug-In . SVG Version: 6.00 Build 0)  -->
<svg version="1.1" id="Ebene_1" xmlns="http://www.w3.org/2000/svg" xmlns:xlink="http://www.w3.org/1999/xlink" x="0px" y="0px"
	 viewBox="0 0 467.72 85.04" style="enable-background:new 0 0 467.72 85.04;" xml:space="preserve">
<style type="text/css">
	.st0{fill:none;stroke:#000000;stroke-width:2.1775;stroke-miterlimit:10;}
	.st1{fill:none;stroke:#000000;stroke-width:2.4195;stroke-miterlimit:10;}
	.st2{fill:none;stroke:#000000;stroke-width:1.961;stroke-linecap:round;stroke-linejoin:round;stroke-miterlimit:10;}
	.st3{fill:none;stroke:#000000;stroke-width:2.1586;stroke-linecap:round;stroke-linejoin:round;stroke-miterlimit:10;}
</style>
<g id="XMLID_340_">
	<path id="XMLID_88_" d="M109.16,49.24c0,0.93,0.07,1.78,0.21,2.55c0.14,0.77,0.33,1.5,0.59,2.2c0.78,2.11,2.03,3.7,3.75,4.76
		c1.72,1.07,3.67,1.6,5.84,1.6c1.71,0,3.37-0.24,4.98-0.71c1.61-0.47,3.31-1.22,5.08-2.23l2.37,4.02c-2.15,1.48-4.31,2.57-6.49,3.29
		c-2.17,0.72-4.43,1.08-6.77,1.08c-2.21,0-4.27-0.37-6.15-1.11c-1.89-0.74-3.51-1.83-4.87-3.29c-1.36-1.46-2.43-3.27-3.2-5.44
		c-0.77-2.17-1.15-4.7-1.15-7.59c0-2.34,0.33-4.55,0.98-6.63s1.63-3.89,2.93-5.44s2.91-2.78,4.83-3.69
		c1.92-0.91,4.16-1.36,6.71-1.36c2.47,0,4.53,0.37,6.19,1.12c1.66,0.75,3.01,1.74,4.05,2.97c1.04,1.23,1.84,2.64,2.37,4.22
		c0.54,1.58,0.91,3.2,1.12,4.84c0.1,0.8,0.17,1.61,0.21,2.44s0.05,1.62,0.05,2.4H109.16z M118.36,36.18c-1.37,0-2.57,0.2-3.59,0.59
		c-1.02,0.39-1.89,0.95-2.61,1.68c-0.72,0.73-1.29,1.62-1.72,2.67c-0.43,1.06-0.75,2.24-0.96,3.54h16.99
		c-0.08-1.22-0.28-2.35-0.59-3.39c-0.31-1.03-0.78-1.93-1.41-2.69c-0.63-0.76-1.45-1.35-2.44-1.77
		C121.04,36.39,119.82,36.18,118.36,36.18z"/>
	<path id="XMLID_92_" d="M156.15,38.63c-0.41-0.62-0.94-1.13-1.6-1.52c-0.65-0.39-1.38-0.67-2.18-0.85
		c-0.8-0.18-1.58-0.27-2.34-0.27c-0.84,0-1.62,0.09-2.33,0.28c-0.71,0.19-1.31,0.46-1.82,0.82c-0.51,0.36-0.9,0.8-1.19,1.31
		c-0.28,0.52-0.43,1.09-0.43,1.72c0,1.1,0.33,1.97,1,2.61c0.66,0.64,1.78,1.24,3.34,1.79l6.3,2.21c2.7,0.91,4.67,2.14,5.92,3.7
		c1.24,1.56,1.87,3.43,1.87,5.6c0,1.46-0.29,2.79-0.87,4c-0.58,1.21-1.4,2.25-2.47,3.1c-1.07,0.85-2.35,1.52-3.84,1.99
		c-1.5,0.47-3.16,0.71-5,0.71c-2.55,0-4.63-0.41-6.23-1.23c-1.6-0.82-2.84-1.91-3.7-3.26h-3.29v-5.44h6.55
		c0,0.91,0.19,1.68,0.59,2.33c0.39,0.64,0.91,1.17,1.55,1.57c0.64,0.4,1.37,0.7,2.18,0.89c0.81,0.19,1.64,0.29,2.48,0.29
		c0.82,0,1.61-0.1,2.37-0.3c0.76-0.2,1.43-0.5,2.01-0.89c0.58-0.39,1.04-0.86,1.38-1.41c0.34-0.55,0.51-1.17,0.51-1.87
		c0-1.05-0.34-1.95-1.03-2.69c-0.69-0.74-1.85-1.4-3.5-1.99l-6.26-2.34c-2.55-0.91-4.45-2.06-5.68-3.46s-1.85-3.16-1.85-5.27
		c0-1.39,0.26-2.68,0.78-3.86c0.52-1.18,1.27-2.2,2.25-3.05c0.98-0.85,2.18-1.52,3.59-2.01c1.41-0.48,3.03-0.73,4.84-0.73
		c2.34,0,4.3,0.33,5.88,0.98c1.58,0.65,3.01,1.77,4.27,3.35h3.07v5.44h-6.49C156.77,40.01,156.56,39.25,156.15,38.63z"/>
	<path id="XMLID_127_" d="M167.65,32.1h10.44v2.72c1.39-1.08,2.91-1.93,4.56-2.56c1.65-0.63,3.34-0.95,5.09-0.95
		c2.15,0,4.12,0.4,5.92,1.2c1.79,0.8,3.34,1.93,4.64,3.39c1.3,1.46,2.3,3.2,3.02,5.24c0.72,2.04,1.08,4.29,1.08,6.75
		c0,2.64-0.4,5.04-1.2,7.21c-0.8,2.17-1.91,4.03-3.34,5.58s-3.12,2.76-5.08,3.62c-1.96,0.86-4.11,1.3-6.45,1.3
		c-1.67,0-3.15-0.17-4.45-0.52c-1.3-0.35-2.54-0.8-3.72-1.34v10.6h5.13v5.44h-15.57v-5.44h4.49v-36.8h-4.56V32.1z M186.19,36.49
		c-1.52,0-2.98,0.31-4.38,0.92c-1.4,0.61-2.62,1.46-3.65,2.53v17.75c0.7,0.72,1.69,1.36,2.99,1.93c1.3,0.57,2.92,0.85,4.86,0.85
		c1.35,0,2.65-0.26,3.89-0.79s2.34-1.31,3.29-2.36c0.95-1.04,1.71-2.34,2.28-3.88c0.57-1.54,0.85-3.32,0.85-5.35
		c0-1.86-0.27-3.5-0.81-4.94c-0.54-1.43-1.27-2.65-2.18-3.64c-0.92-0.99-1.99-1.75-3.21-2.26
		C188.89,36.75,187.58,36.49,186.19,36.49z"/>
	<path id="XMLID_130_" d="M205.99,15.64h10.38V35.7h0.19c0.59-0.59,1.27-1.14,2.04-1.66c0.77-0.52,1.58-0.96,2.42-1.34
		c0.84-0.38,1.72-0.67,2.63-0.89c0.91-0.21,1.86-0.32,2.85-0.32c1.75,0,3.33,0.24,4.75,0.73c1.41,0.49,2.62,1.22,3.61,2.21
		c0.99,0.99,1.76,2.26,2.29,3.81s0.81,3.38,0.81,5.49v15.69h4.94v5.44h-15.57v-5.44h4.49V44.47c0-2.51-0.64-4.41-1.91-5.71
		c-1.28-1.3-3.11-1.95-5.49-1.95c-1.35,0-2.72,0.32-4.11,0.97c-1.39,0.64-2.7,1.45-3.92,2.42v19.24h4.75v5.44h-15.57v-5.44h4.94
		V21.08h-4.49V15.64z"/>
	<path id="XMLID_132_" d="M245.03,48.49c0.02-2.59,0.44-4.96,1.25-7.09c0.81-2.13,1.95-3.96,3.4-5.49s3.19-2.71,5.19-3.53
		c2-0.82,4.21-1.23,6.61-1.23c2.43,0,4.65,0.41,6.66,1.23c2.01,0.82,3.74,1.99,5.17,3.5c1.43,1.51,2.55,3.33,3.35,5.46
		c0.8,2.13,1.2,4.49,1.2,7.09c0,2.55-0.4,4.9-1.2,7.04c-0.8,2.14-1.92,3.98-3.35,5.52c-1.43,1.54-3.16,2.74-5.17,3.59
		c-2.01,0.85-4.23,1.28-6.66,1.28c-2.47,0-4.7-0.42-6.71-1.27c-2-0.84-3.72-2.03-5.16-3.56c-1.44-1.53-2.55-3.36-3.35-5.49
		C245.46,53.41,245.05,51.06,245.03,48.49z M251.26,48.49c0,1.88,0.27,3.58,0.81,5.09c0.54,1.52,1.28,2.81,2.21,3.88
		c0.94,1.07,2.02,1.89,3.26,2.47s2.55,0.87,3.94,0.87c1.46,0,2.81-0.28,4.07-0.85c1.25-0.57,2.35-1.39,3.27-2.45
		c0.93-1.06,1.66-2.36,2.18-3.88c0.53-1.52,0.79-3.23,0.79-5.13c0-1.98-0.26-3.74-0.79-5.28c-0.53-1.54-1.25-2.83-2.17-3.86
		c-0.92-1.03-2.01-1.81-3.27-2.34c-1.27-0.53-2.63-0.79-4.08-0.79c-1.39,0-2.71,0.26-3.94,0.79c-1.23,0.53-2.32,1.31-3.26,2.34
		c-0.94,1.03-1.68,2.32-2.21,3.86C251.53,44.74,251.26,46.5,251.26,48.49z"/>
	<path id="XMLID_135_" d="M281.31,32.1h10.44v3.83h0.06c0.72-0.61,1.47-1.19,2.26-1.72c0.79-0.54,1.62-1.01,2.48-1.41
		c0.86-0.4,1.77-0.72,2.71-0.95c0.94-0.23,1.91-0.35,2.93-0.35c2.36,0,4.4,0.44,6.11,1.31c1.71,0.88,3.03,2.24,3.96,4.1
		c0.8-0.72,1.65-1.41,2.53-2.07c0.89-0.66,1.81-1.24,2.77-1.72c0.96-0.48,1.97-0.88,3.02-1.17c1.05-0.29,2.15-0.44,3.29-0.44
		c1.77,0,3.36,0.24,4.78,0.73c1.41,0.49,2.62,1.22,3.61,2.21c0.99,0.99,1.75,2.26,2.26,3.81c0.52,1.55,0.78,3.38,0.78,5.49v15.69
		h4.56v5.44h-15.31v-5.44h4.62V44.47c0-2.51-0.63-4.41-1.9-5.71c-1.27-1.3-3.09-1.95-5.47-1.95c-1.41,0-2.86,0.34-4.33,1.01
		c-1.48,0.68-2.74,1.53-3.8,2.56v19.05h4.52v5.44h-15.28v-5.44h4.62V44.47c0-2.51-0.64-4.41-1.91-5.71
		c-1.28-1.3-3.11-1.95-5.49-1.95c-1.37,0-2.75,0.33-4.15,0.98c-1.39,0.65-2.71,1.47-3.96,2.44v19.21h4.62v5.44h-15.31v-5.44h4.56
		v-21.9h-4.56V32.1z"/>
	<path id="XMLID_137_" d="M348.83,49.24c0,0.93,0.07,1.78,0.21,2.55c0.14,0.77,0.33,1.5,0.59,2.2c0.78,2.11,2.03,3.7,3.75,4.76
		c1.72,1.07,3.67,1.6,5.84,1.6c1.71,0,3.37-0.24,4.98-0.71c1.61-0.47,3.31-1.22,5.08-2.23l2.37,4.02c-2.15,1.48-4.31,2.57-6.49,3.29
		c-2.17,0.72-4.43,1.08-6.77,1.08c-2.21,0-4.27-0.37-6.15-1.11c-1.89-0.74-3.51-1.83-4.87-3.29c-1.36-1.46-2.43-3.27-3.2-5.44
		c-0.77-2.17-1.15-4.7-1.15-7.59c0-2.34,0.33-4.55,0.98-6.63s1.63-3.89,2.93-5.44s2.91-2.78,4.83-3.69
		c1.92-0.91,4.16-1.36,6.71-1.36c2.47,0,4.53,0.37,6.19,1.12c1.66,0.75,3.01,1.74,4.05,2.97c1.04,1.23,1.84,2.64,2.37,4.22
		c0.54,1.58,0.91,3.2,1.12,4.84c0.1,0.8,0.17,1.61,0.21,2.44s0.05,1.62,0.05,2.4H348.83z M358.04,36.18c-1.37,0-2.57,0.2-3.59,0.59
		c-1.02,0.39-1.89,0.95-2.61,1.68c-0.72,0.73-1.29,1.62-1.72,2.67c-0.43,1.06-0.75,2.24-0.96,3.54h16.99
		c-0.08-1.22-0.28-2.35-0.59-3.39c-0.31-1.03-0.78-1.93-1.41-2.69c-0.63-0.76-1.45-1.35-2.44-1.77
		C360.72,36.39,359.49,36.18,358.04,36.18z"/>
	<path id="XMLID_140_" d="M375.97,15.64h10.63v43.79h4.94v5.44h-15.57v-5.44h4.75V21.08h-4.75V15.64z"/>
	<path id="XMLID_142_" d="M396.07,32.1h10.69v27.34h4.94v5.44h-15.57v-5.44h4.68v-21.9h-4.75V32.1z M399.71,20.48
		c0-0.55,0.11-1.07,0.33-1.57c0.22-0.5,0.52-0.93,0.89-1.3c0.37-0.37,0.81-0.66,1.31-0.89c0.51-0.22,1.04-0.33,1.61-0.33
		c0.55,0,1.07,0.11,1.57,0.33c0.5,0.22,0.93,0.52,1.3,0.89c0.37,0.37,0.66,0.8,0.89,1.3c0.22,0.5,0.33,1.02,0.33,1.57
		c0,0.57-0.11,1.11-0.33,1.61c-0.22,0.51-0.52,0.96-0.89,1.34c-0.37,0.39-0.8,0.7-1.3,0.92c-0.5,0.22-1.02,0.33-1.57,0.33
		c-0.57,0-1.11-0.11-1.61-0.33c-0.51-0.22-0.94-0.53-1.31-0.92c-0.37-0.39-0.66-0.84-0.89-1.34
		C399.82,21.59,399.71,21.05,399.71,20.48z"/>
	<path id="XMLID_145_" d="M413.81,15.64h10.63v19.17c1.39-1.08,2.91-1.93,4.56-2.56c1.65-0.63,3.34-0.95,5.09-0.95
		c2.15,0,4.12,0.4,5.92,1.2c1.79,0.8,3.34,1.93,4.64,3.39c1.3,1.46,2.3,3.2,3.02,5.24c0.72,2.04,1.08,4.29,1.08,6.75
		c0,2.64-0.4,5.03-1.2,7.17c-0.8,2.14-1.91,3.98-3.34,5.52c-1.42,1.54-3.12,2.73-5.08,3.56s-4.11,1.25-6.45,1.25
		c-1.62,0-3.15-0.24-4.57-0.71s-2.64-1.09-3.65-1.85v2.06h-5.89V21.08h-4.75V15.64z M432.54,36.49c-1.54,0-3.02,0.32-4.43,0.95
		c-1.41,0.63-2.64,1.49-3.67,2.56v17.62c0.67,0.7,1.67,1.31,2.97,1.85c1.31,0.54,2.95,0.81,4.94,0.81c1.35,0,2.65-0.25,3.89-0.76
		s2.34-1.27,3.29-2.29c0.95-1.02,1.71-2.29,2.28-3.81c0.57-1.52,0.85-3.29,0.85-5.32c0-1.86-0.27-3.5-0.81-4.94
		c-0.54-1.43-1.27-2.65-2.18-3.64c-0.92-0.99-1.99-1.75-3.21-2.26C435.24,36.75,433.93,36.49,432.54,36.49z"/>
</g>
<g id="XMLID_91_">
	<g id="XMLID_113_">
		<g id="XMLID_124_">
			<path id="XMLID_125_" class="st0" d="M80.63,26.18l0-4.18c0-1.47,1.19-2.66,2.66-2.66s2.66,1.19,2.66,2.66l0,4.18"/>
		</g>
		<g id="XMLID_122_">
			<path id="XMLID_123_" class="st0" d="M71.68,26.18l0-4.18c0-1.47,1.19-2.66,2.66-2.66S77,20.52,77,21.99l0,4.18"/>
		</g>
		<g id="XMLID_120_">
			<path id="XMLID_121_" class="st0" d="M62.72,26.18l0-4.18c0-1.47,1.19-2.66,2.66-2.66s2.66,1.19,2.66,2.66v4.18"/>
		</g>
		<g id="XMLID_118_">
			<path id="XMLID_119_" class="st0" d="M53.76,26.18l0-4.18c0-1.47,1.19-2.66,2.66-2.66s2.66,1.19,2.66,2.66v4.18"/>
		</g>
		<g id="XMLID_116_">
			<path id="XMLID_117_" class="st0" d="M44.8,26.18l0-4.18c0-1.47,1.19-2.66,2.66-2.66s2.66,1.19,2.66,2.66l0,4.18"/>
		</g>
		<g id="XMLID_114_">
			<path id="XMLID_115_" class="st0" d="M35.85,26.18l0-4.18c0-1.47,1.19-2.66,2.66-2.66s2.66,1.19,2.66,2.66l0,4.18"/>
		</g>
	</g>
	<g id="XMLID_100_">
		<g id="XMLID_111_">
			<path id="XMLID_112_" class="st0" d="M85.95,66.07v4.68c0,1.47-1.19,2.66-2.66,2.66c-1.47,0-2.66-1.19-2.66-2.66v-4.68"/>
		</g>
		<g id="XMLID_109_">
			<path id="XMLID_110_" class="st0" d="M77,66.07l0,4.68c0,1.47-1.19,2.66-2.66,2.66c-1.47,0-2.66-1.19-2.66-2.66l0-4.68"/>
		</g>
		<g id="XMLID_107_">
			<path id="XMLID_108_" class="st0" d="M68.04,66.07l0,4.68c0,1.47-1.19,2.66-2.66,2.66c-1.47,0-2.66-1.19-2.66-2.66v-4.68"/>
		</g>
		<g id="XMLID_105_">
			<path id="XMLID_106_" class="st0" d="M59.08,66.07l0,4.68c0,1.47-1.19,2.66-2.66,2.66c-1.47,0-2.66-1.19-2.66-2.66l0-4.68"/>
		</g>
		<g id="XMLID_103_">
			<path id="XMLID_104_" class="st0" d="M50.12,66.07v4.68c0,1.47-1.19,2.66-2.66,2.66c-1.47,0-2.66-1.19-2.66-2.66l0-4.68"/>
		</g>
		<g id="XMLID_101_">
			<path id="XMLID_102_" class="st0" d="M41.17,66.33l0,4.43c0,1.47-1.19,2.66-2.66,2.66c-1.47,0-2.66-1.19-2.66-2.66l0-4.43"/>
		</g>
	</g>
	<g id="XMLID_98_">
		<path id="XMLID_99_" class="st1" d="M87.29,26.18H34.51c-0.53,0-0.97,0.43-0.97,0.97l0,37.96c0,0.53,0.43,0.97,0.97,0.97l52.77,0
			c0.53,0,0.97-0.43,0.97-0.97l0-37.96C88.25,26.61,87.82,26.18,87.29,26.18z"/>
	</g>
	<g id="XMLID_95_">
		<polygon id="XMLID_97_" points="69.6,45.42 69.6,40.35 67.8,40.35 67.8,43.63 60.99,36.82 49.5,48.32 52.37,48.32 52.37,56.07 
			69.62,56.07 69.62,48.32 72.49,48.32 		"/>
		<polygon id="XMLID_96_" class="st2" points="69.6,45.42 69.6,40.35 67.8,40.35 67.8,43.63 60.99,36.82 49.5,48.32 52.37,48.32 
			52.37,56.07 69.62,56.07 69.62,48.32 72.49,48.32 		"/>
	</g>
	<g id="XMLID_93_">
		<polyline id="XMLID_94_" class="st3" points="33.34,63.77 17.52,63.77 17.52,59.88 29.38,59.88 29.38,55.99 17.52,55.99 
			17.52,52.11 29.38,52.11 29.38,48.22 17.52,48.22 17.52,44.33 29.38,44.33 29.38,40.45 17.52,40.45 17.52,28.47 		"/>
	</g>
</g>
<g id="XMLID_87_">
</g>
<g id="XMLID_148_">
</g>
<g id="XMLID_149_">
</g>
<g id="XMLID_150_">
</g>
<g id="XMLID_151_">
</g>
<g id="XMLID_152_">
</g>
</svg>
