<?xml version="1.0" encoding="UTF-8" standalone="no"?>
<!-- Created with Inkscape (http://www.inkscape.org/) -->

<svg
   xmlns:dc="http://purl.org/dc/elements/1.1/"
   xmlns:cc="http://creativecommons.org/ns#"
   xmlns:rdf="http://www.w3.org/1999/02/22-rdf-syntax-ns#"
   xmlns:svg="http://www.w3.org/2000/svg"
   xmlns="http://www.w3.org/2000/svg"
   xmlns:sodipodi="http://sodipodi.sourceforge.net/DTD/sodipodi-0.dtd"
   xmlns:inkscape="http://www.inkscape.org/namespaces/inkscape"
   version="1.1"
   width="153.01131"
   height="170.05031"
   viewBox="0 0 153.0113 170.05031"
   id="Ebene_1"
   xml:space="preserve"
   inkscape:version="0.91 r13725"
   sodipodi:docname="I2c_logo.svg"><metadata
     id="metadata18"><rdf:RDF><cc:Work
         rdf:about=""><dc:format>image/svg+xml</dc:format><dc:type
           rdf:resource="http://purl.org/dc/dcmitype/StillImage" /></cc:Work></rdf:RDF></metadata><sodipodi:namedview
     pagecolor="#ffffff"
     bordercolor="#666666"
     borderopacity="1"
     objecttolerance="10"
     gridtolerance="10"
     guidetolerance="10"
     inkscape:pageopacity="0"
     inkscape:pageshadow="2"
     inkscape:window-width="1920"
     inkscape:window-height="1017"
     id="namedview16"
     showgrid="false"
     inkscape:zoom="2.7756492"
     inkscape:cx="220.11949"
     inkscape:cy="125.75569"
     inkscape:window-x="-8"
     inkscape:window-y="-8"
     inkscape:window-maximized="1"
     inkscape:current-layer="Ebene_1" /><defs
     id="defs31" /><g
     id="g3359"><path
       d="m 152.60014,83.30315 -30.396,0.208 0,17.435 -14.832,0 0,-54.286 14.205,0 0,18.791 31.023,-0.104 0,-56.48 c 0,-4.593 -4.805,-8.456 -9.297,-8.456 l -134.432,0 c -4.596,0 -8.46,3.863 -8.46,8.456 l 0,152.315 c 0,4.594 3.759,8.457 8.46,8.457 l 134.432,0 c 4.596,0 9.297,-3.863 9.297,-8.457 l 0,-77.879 0,0 z"
       id="path7"
       style="fill:#ffffff;fill-rule:evenodd;stroke:#000000;stroke-width:0.82230002;stroke-miterlimit:2.61310005"
       inkscape:connector-curvature="0" /><path
       d="m 147.27214,88.31315 0,67.129 c 0,3.758 -5.223,8.455 -8.982,8.455 l -123.883,0 c -4.596,0 -8.461,-3.758 -8.461,-8.455 l 0,-140.728 c 0,-4.698 3.866,-8.456 8.461,-8.456 l 123.883,0 c 4.596,0 8.982,4.176 8.982,8.456 l 0,46.979 -20.891,0.104 0,-19.835 -25.381,0 0,62.429 25.381,0 0,-16.182 20.891,0.104 0,0 z"
       id="path9"
       style="fill:#c8c9ca;fill-rule:evenodd;stroke:#000000;stroke-width:0.82230002;stroke-miterlimit:2.61310005"
       inkscape:connector-curvature="0" /><path
       id="path11"
       d="M 13.257812 124.54102 L 13.257812 156.69336 L 31.748047 156.69336 L 40.310547 156.69336 C 45.846547 156.69336 51.070313 154.08584 51.070312 147.08984 C 51.070312 144.68984 50.233562 142.81066 47.726562 140.72266 C 54.098562 134.87666 50.651344 125.37702 43.027344 124.54102 L 31.748047 124.54102 L 31.746094 124.54102 L 13.257812 124.54102 z M 22.867188 131.5332 L 31.746094 131.5332 L 31.748047 131.5332 L 39.056641 131.5332 C 41.354641 132.7872 40.833719 136.75437 37.386719 137.48438 L 31.748047 137.48438 L 31.746094 137.48438 L 22.867188 137.48438 L 22.867188 131.5332 z M 22.867188 143.85156 L 31.746094 143.85156 L 31.748047 143.85156 L 38.222656 143.85156 C 41.879656 144.68756 40.833219 148.96823 37.699219 149.49023 L 31.748047 149.49023 L 22.867188 149.49023 L 22.867188 143.85156 z "
       style="fill-rule:evenodd" /><path
       d="m 110.40114,124.54015 c -11.594,1.357 -11.281,16.809 -1.254,18.896 l 17.861,0 c 3.762,0.416 3.971,5.533 -0.104,6.367 l -12.639,0 c -1.672,0 -2.508,-1.67 -2.508,-3.445 l -10.027,0 c -0.209,7.936 5.119,10.232 8.773,10.336 l 18.803,0 c 12.848,-0.73 13.057,-17.225 2.924,-18.896 l -17.547,0 c -3.971,-0.521 -4.283,-6.055 -0.418,-6.576 l 12.43,0 c 2.088,0 3.238,1.879 3.238,3.34 l 9.504,0 c -0.207,-5.326 -3.969,-10.021 -8.459,-10.021 l -20.577,0 0,-0.001 z"
       id="path15"
       style="fill-rule:evenodd"
       inkscape:connector-curvature="0" /><path
       d="m 57.65114,124.85215 0,28.291 c 0,1.881 2.821,3.969 4.701,3.969 l 28.411,0 c 1.984,0 5.119,-2.611 5.119,-5.012 l 0,-27.248 -9.609,0 0,21.715 c 0,1.67 -2.09,3.236 -3.656,3.236 l -12.221,0 c -1.149,0 -3.134,-1.357 -3.134,-3.027 l 0,-21.924 -9.611,0 0,0 z"
       id="path17"
       style="fill-rule:evenodd"
       inkscape:connector-curvature="0" /><polygon
       transform="translate(-219.87186,-336.24285)"
       points="220.283,454.937 220.283,364.946 220.283,364.946 253.082,364.946 253.082,454.937 "
       id="polygon19"
       style="fill:#ffffff;fill-rule:evenodd;stroke:#000000;stroke-width:0.82230002;stroke-miterlimit:2.61310005" /><path
       d="m 152.60014,82.67615 -31.441,-0.104 -0.104,11.274 c 0,2.924 -2.82,6.264 -6.268,6.264 -3.551,0 -6.371,-2.818 -6.371,-6.264 l 0,-40.297 c 0,-3.445 2.82,-6.369 6.371,-6.369 3.447,0 6.268,3.237 6.268,6.369 l 0,12.737 31.545,0 0,-28.605 c 0,-4.906 -4.074,-9.5 -9.191,-9.5 l -54.422,0 c -5.223,0 -9.4,4.28 -9.4,9.5 l 0,70.886 c 0,5.324 4.49,9.604 9.4,9.604 l 54.422,0 c 4.908,0 9.191,-4.697 9.191,-9.604 l 0,-25.891 0,0 z"
       id="path21"
       style="fill:#ffffff;fill-rule:evenodd;stroke:#000000;stroke-width:0.82230002;stroke-miterlimit:2.61310005"
       inkscape:connector-curvature="0" /><polygon
       transform="translate(-219.87186,-336.24285)"
       points="247.754,370.688 225.505,370.688 225.505,370.688 225.505,449.298 247.754,449.298 "
       id="polygon23"
       style="fill:#c8c9ca;fill-rule:evenodd;stroke:#000000;stroke-width:0.82230002;stroke-miterlimit:2.61310005" /><path
       d="m 147.27214,61.27615 0,-22.55 c 0,-1.984 -2.193,-4.699 -4.699,-4.699 l -52.959,0 c -2.506,0 -4.805,2.192 -4.805,4.699 l 0,69.632 c 0,2.506 2.299,4.697 4.805,4.697 l 52.959,0 c 2.82,0 4.699,-2.4 4.699,-4.697 l 0,-20.463 -20.891,0.105 0,12.109 c 0,2.715 -2.611,5.324 -5.326,5.324 l -12.639,0 c -2.926,0 -5.328,-2.4 -5.328,-5.324 l 0,-52.929 c 0,-2.923 2.402,-5.219 5.328,-5.219 l 12.639,0 c 2.82,0 5.326,2.401 5.326,5.219 l 0,14.095 20.891,0 0,0.001 z"
       id="path25"
       style="fill:#c8c9ca;fill-rule:evenodd;stroke:#000000;stroke-width:0.82230002;stroke-miterlimit:2.61310005"
       inkscape:connector-curvature="0" /><path
       d="m 45.43014,18.57615 c -3.761,1.252 -6.372,4.489 -6.372,9.605 l 5.746,0 c 0,-1.567 1.044,-3.967 2.924,-3.967 l 16.608,0 c 3.657,0.939 2.82,7.412 0.417,8.247 l -20.473,0 c -2.82,0 -4.805,3.445 -4.805,5.742 l 0,10.857 34.053,0 0,-5.742 -27.68,0 -0.417,-0.313 0,-2.61 c 0.417,-0.313 1.044,-1.669 1.88,-1.879 l 17.444,0 c 3.97,0 8.043,-4.071 8.043,-7.412 l 0,-4.593 c 0,-3.132 -4.283,-7.935 -8.252,-7.935 l -19.116,0 0,0 z"
       id="path27"
       style="fill:#ffffff;fill-rule:evenodd;stroke:#000000;stroke-width:0.82230002;stroke-miterlimit:2.61310005"
       inkscape:connector-curvature="0" /></g></svg>